<?xml version="1.0" standalone="no"?>
<!DOCTYPE svg PUBLIC "-//W3C//DTD SVG 20010904//EN"
 "http://www.w3.org/TR/2001/REC-SVG-20010904/DTD/svg10.dtd">
<svg version="1.0" xmlns="http://www.w3.org/2000/svg"
 width="16.000000pt" height="16.000000pt" viewBox="0 0 16.000000 16.000000"
 preserveAspectRatio="xMidYMid meet">
<metadata>
Created by potrace 1.11, written by Peter Selinger 2001-2013
</metadata>
<g transform="translate(0.000000,16.000000) scale(0.002783,-0.002783)"
fill="#000000" stroke="none">
<path d="M906 5083 c-4 -5 -75 -13 -103 -13 -13 0 -23 -4 -23 -10 0 -5 -9 -7
-20 -5 -11 2 -20 0 -20 -5 0 -5 -6 -7 -14 -4 -8 3 -17 0 -21 -5 -3 -6 -10 -9
-15 -6 -5 3 -11 1 -15 -5 -3 -5 -15 -10 -26 -10 -10 0 -19 -5 -19 -11 0 -5 -4
-8 -9 -4 -5 3 -15 0 -23 -7 -7 -7 -20 -14 -28 -16 -8 -2 -16 -8 -18 -13 -2 -5
-10 -9 -18 -9 -8 0 -14 -5 -14 -11 0 -5 -4 -7 -10 -4 -5 3 -10 2 -10 -4 0 -5
-9 -13 -21 -16 -22 -7 -209 -185 -194 -185 5 0 0 -7 -11 -15 -10 -8 -16 -15
-12 -15 4 0 -6 -14 -22 -32 -16 -17 -27 -34 -25 -37 3 -2 -1 -11 -9 -20 -8 -9
-16 -23 -18 -31 -2 -8 -7 -18 -11 -21 -5 -3 -10 -12 -11 -20 -2 -8 -6 -23 -10
-34 -5 -11 -14 -37 -22 -58 -8 -21 -12 -42 -9 -47 3 -5 1 -11 -5 -15 -6 -4 -8
-11 -5 -16 4 -5 3 -9 -2 -9 -4 0 -10 -21 -12 -48 -8 -92 -5 -2818 3 -2872 4
-30 12 -63 17 -72 5 -10 7 -18 4 -18 -3 0 1 -16 9 -35 9 -20 15 -38 15 -40 0
-16 26 -75 34 -75 4 0 6 -4 3 -8 -3 -5 6 -25 19 -45 14 -20 25 -40 25 -45 0
-5 17 -26 37 -48 21 -21 31 -34 23 -29 -8 4 19 -25 60 -66 74 -74 150 -137
150 -125 0 3 9 -3 20 -14 20 -20 109 -65 123 -62 4 1 7 -3 7 -9 0 -5 4 -8 9
-4 5 3 13 0 16 -6 4 -5 13 -8 21 -5 8 3 14 1 14 -4 0 -6 3 -9 8 -9 4 1 9 0 12
-1 3 -1 14 -3 25 -5 11 -2 31 -6 45 -10 14 -4 43 -9 65 -12 58 -8 2792 -9
2845 -1 71 11 130 26 180 45 8 4 21 5 28 4 6 -1 12 3 12 9 0 5 3 9 8 8 11 -4
120 52 133 68 6 8 18 14 25 14 8 0 14 7 14 16 0 8 4 12 10 9 12 -7 163 143
208 208 18 26 31 47 27 47 -3 0 3 9 13 20 18 19 69 133 79 175 8 39 11 50 13
50 2 0 8 30 16 80 4 22 8 200 9 395 2 379 -1 400 -48 415 -41 13 -77 15 -77 4
0 -5 -4 -7 -10 -4 -5 3 -10 1 -10 -6 0 -7 -3 -10 -6 -6 -8 8 -34 -18 -34 -33
0 -6 -4 -9 -8 -6 -8 5 -60 -45 -54 -51 1 -2 1 -2 -1 0 -6 5 -35 -28 -30 -36 2
-4 -3 -7 -11 -7 -9 0 -16 -7 -16 -16 0 -8 -4 -13 -8 -10 -8 5 -66 -58 -68 -75
-1 -5 -3 -10 -4 -11 -2 -2 -4 -111 -6 -243 -2 -246 -5 -281 -22 -326 -6 -15
-8 -30 -5 -33 4 -3 1 -6 -6 -6 -7 0 -9 -5 -6 -10 3 -5 2 -10 -3 -10 -5 0 -12
-10 -16 -22 -8 -33 -7 -32 -25 -45 -9 -7 -12 -13 -7 -13 4 0 -6 -12 -23 -27
-17 -15 -31 -33 -31 -40 0 -6 -5 -15 -12 -19 -7 -5 -8 -3 -3 7 8 12 6 12 -8 0
-9 -7 -14 -18 -10 -24 3 -5 2 -7 -4 -4 -5 3 -21 -5 -36 -19 -15 -14 -27 -22
-27 -19 0 4 -13 -3 -30 -15 -16 -12 -30 -19 -30 -15 0 3 -9 1 -21 -5 -21 -12
-34 -15 -104 -28 -46 -8 -2714 -7 -2760 2 -16 3 -41 8 -55 10 -35 8 -133 57
-148 75 -11 13 -12 13 -6 1 4 -8 -18 11 -49 43 -32 31 -57 61 -57 66 0 4 -9
16 -20 26 -11 10 -20 24 -20 30 0 7 -7 18 -15 25 -8 7 -13 16 -10 20 3 5 1 11
-5 15 -6 4 -8 11 -5 16 4 5 2 9 -2 9 -5 0 -9 8 -10 18 -1 9 -5 33 -9 52 -8 40
-9 2726 -1 2780 3 19 10 47 15 61 6 15 8 30 5 33 -4 3 -1 6 5 6 7 0 12 9 12
20 0 11 5 20 11 20 5 0 7 5 4 10 -3 6 -1 10 4 10 6 0 11 7 11 15 0 8 5 15 12
15 6 0 9 2 6 5 -3 3 12 23 33 44 21 22 35 42 32 45 -4 3 -1 6 6 6 12 0 24 9
61 42 10 9 21 14 24 10 3 -3 6 0 6 7 0 7 5 9 10 6 6 -3 10 -1 10 4 0 6 9 11
20 11 11 0 20 5 20 11 0 5 5 7 10 4 6 -3 16 -3 23 2 6 4 15 8 20 9 4 1 8 2 10
3 1 2 16 5 32 8 41 7 2752 5 2790 -2 85 -16 108 -14 137 15 15 16 28 26 28 23
0 -3 9 4 20 17 11 13 20 27 20 32 0 5 3 8 8 6 4 -2 23 13 43 34 21 21 35 38
33 38 -3 0 4 10 16 22 23 25 22 84 -1 99 -8 5 -10 9 -6 9 5 0 1 7 -7 16 -9 8
-20 12 -26 9 -5 -3 -10 -1 -10 5 0 6 -5 8 -10 5 -5 -3 -10 -1 -10 6 0 7 -3 9
-7 6 -3 -4 -11 -3 -17 2 -7 6 -23 12 -36 14 -14 3 -36 9 -50 14 -14 5 -32 9
-40 8 -8 -1 -19 2 -25 6 -5 3 -17 7 -25 8 -27 3 -2811 7 -2814 4z"/>
<path d="M4820 5047 c0 -5 -4 -5 -10 -2 -23 14 -111 -53 -257 -198 l-156 -156
447 -447 446 -447 48 44 c27 24 47 46 46 49 -1 3 4 11 12 18 8 7 14 9 14 5 1
-4 8 5 16 20 8 15 19 25 24 22 6 -4 10 0 11 7 0 7 18 28 41 46 22 17 37 32 33
32 -3 0 7 12 24 26 17 14 29 30 25 35 -3 5 2 9 11 9 9 0 13 5 10 10 -3 6 -1
10 4 10 6 0 11 7 11 15 0 8 4 15 10 15 5 0 9 3 9 8 -1 4 0 9 1 12 13 34 22
180 11 180 -3 0 -7 11 -7 25 -2 25 -69 125 -85 125 -5 0 -9 7 -9 16 0 8 -4 12
-10 9 -5 -3 -10 1 -10 9 0 9 -4 16 -9 16 -5 0 -27 19 -50 41 -22 23 -41 45
-41 50 0 5 -6 9 -14 9 -8 0 -18 9 -21 21 -4 11 -9 18 -11 16 -6 -5 -114 104
-114 115 0 4 -4 8 -9 8 -12 0 -80 68 -74 74 3 2 -5 7 -16 11 -12 3 -21 13 -21
21 0 8 -7 14 -15 14 -8 0 -15 4 -15 10 0 14 -91 81 -101 74 -5 -3 -9 -1 -9 4
0 15 -81 33 -137 30 -29 -2 -53 -7 -53 -11z"/>
<path d="M3140 3434 l-1045 -1046 -1 -447 -1 -447 450 0 449 1 34 38 c19 20
39 37 45 37 5 0 7 4 4 10 -3 5 5 15 19 21 14 7 24 15 22 18 -2 3 2 12 10 19 8
7 14 10 14 6 0 -3 15 12 34 35 18 22 36 37 40 34 3 -4 6 0 6 8 1 8 18 28 39
44 21 17 38 32 37 35 -1 3 20 26 46 52 27 26 48 44 48 41 0 -3 13 10 29 30 15
20 31 34 35 30 3 -3 6 -1 6 5 0 12 35 52 42 49 1 -1 22 17 44 40 23 24 40 43
38 43 -2 0 5 9 16 20 11 11 25 20 32 20 6 0 8 3 5 6 -4 4 10 20 30 35 20 16
33 29 29 29 -4 0 14 18 39 40 25 22 44 40 42 40 -3 0 11 17 31 37 21 21 40 36
45 35 4 -1 7 4 7 10 1 7 18 27 39 43 21 17 38 32 37 35 -1 3 20 26 46 52 27
26 48 44 48 41 0 -3 13 10 29 30 15 20 31 34 35 30 3 -3 6 -1 6 5 0 7 9 21 20
32 11 11 20 18 20 16 0 -2 19 15 43 38 23 22 41 43 40 44 -3 7 37 42 49 42 6
0 8 3 5 6 -4 4 10 20 30 35 20 16 33 29 29 29 -4 0 14 18 39 40 25 22 44 40
42 40 -6 0 51 58 98 99 20 17 33 31 30 31 -3 0 4 9 15 20 11 11 25 20 32 20 6
0 8 3 5 6 -4 4 9 19 28 34 19 15 33 29 32 31 -2 2 19 25 45 50 26 26 48 44 48
42 0 -2 18 17 40 42 22 25 40 43 40 39 0 -4 13 9 29 29 15 20 31 34 35 30 3
-3 6 -1 6 5 0 12 35 52 42 49 2 -1 19 15 39 35 21 21 35 38 33 38 -2 0 14 17
37 37 24 22 36 39 29 41 -15 5 -170 164 -170 174 0 5 -6 8 -14 8 -8 0 -18 9
-21 20 -4 11 -9 19 -13 17 -9 -3 -81 71 -75 77 3 2 -5 7 -16 11 -12 3 -21 13
-21 21 0 8 -3 14 -8 14 -11 0 -172 159 -172 170 0 6 -7 10 -16 10 -8 0 -13 4
-9 9 3 5 -4 12 -15 16 -11 3 -20 13 -20 21 0 8 -3 14 -8 14 -12 0 -92 77 -92
89 0 6 -7 11 -16 11 -8 0 -13 4 -9 9 3 5 -4 12 -15 16 -11 3 -20 12 -20 19 0
7 -11 19 -25 26 -13 7 -22 17 -20 21 3 4 -4 10 -15 14 -11 3 -20 12 -20 20 0
8 -9 17 -20 20 -11 3 -20 13 -20 21 0 8 -7 14 -15 14 -8 0 -15 5 -15 10 0 6
-3 10 -7 10 -5 0 -478 -471 -1053 -1046z m1088 617 c33 -18 45 -56 28 -89 -20
-37 -1128 -1142 -1146 -1143 -8 0 -23 -2 -32 -4 -10 -2 -18 1 -18 6 0 5 -6 9
-14 9 -15 0 -30 43 -27 75 1 11 20 37 42 58 21 21 39 40 39 42 0 6 38 45 43
45 7 0 357 354 357 361 0 4 4 9 10 11 11 3 150 137 150 144 0 5 38 44 43 44 4
0 277 272 277 277 0 4 39 43 43 43 11 0 123 121 118 127 -3 3 -1 4 4 0 6 -3
17 -2 24 3 17 10 29 8 59 -9z m-1235 -1657 c130 -130 237 -240 237 -245 0 -5
-7 -12 -15 -15 -8 -4 -12 -10 -9 -15 3 -5 -2 -9 -11 -9 -9 0 -14 -4 -11 -9 3
-4 -6 -13 -21 -20 -14 -6 -23 -14 -20 -18 4 -3 -14 -21 -39 -40 -24 -19 -42
-38 -39 -43 3 -5 -4 -11 -14 -15 -11 -3 -34 -25 -51 -47 -16 -23 -30 -39 -30
-35 0 4 -6 2 -14 -5 -8 -7 -12 -16 -10 -20 2 -4 -5 -9 -15 -13 -11 -3 -23 -15
-26 -26 -4 -10 -10 -17 -15 -14 -5 3 -10 0 -12 -7 -3 -8 -34 -12 -99 -13 l-94
0 1 151 1 150 -152 0 -151 -1 2 93 2 92 76 76 c42 42 76 80 76 85 0 5 3 8 8 7
4 -2 50 41 102 94 52 54 98 98 101 98 3 0 112 -106 242 -236z"/>
</g>
</svg>
